<?xml version="1.0" encoding="UTF-8" standalone="no"?>
<!DOCTYPE svg PUBLIC "-//W3C//DTD SVG 1.1//EN"
 "http://www.w3.org/Graphics/SVG/1.1/DTD/svg11.dtd">
<!-- Generated by graphviz version 2.47.0 (20210316.0004)
 -->
<!-- Title: dependencies Pages: 1 -->
<svg width="898pt" height="284pt"
 viewBox="0.00 0.00 898.00 284.00" xmlns="http://www.w3.org/2000/svg" xmlns:xlink="http://www.w3.org/1999/xlink">
<g id="graph0" class="graph" transform="scale(1 1) rotate(0) translate(4 280)">
<title>dependencies</title>
<polygon fill="white" stroke="transparent" points="-4,4 -4,-280 894,-280 894,4 -4,4"/>
<text text-anchor="start" x="424.01" y="-42.4" font-family="Times-12" font-weight="bold" font-size="14.00">Legend</text>
<polygon fill="#ffffb3" stroke="transparent" points="211,-10 211,-30 231,-30 231,-10 211,-10"/>
<text text-anchor="start" x="234.63" y="-15.4" font-family="Times-12" font-size="14.00"> &#160;Declarations</text>
<polygon fill="#8dd3c7" stroke="transparent" points="324,-10 324,-30 344,-30 344,-10 324,-10"/>
<text text-anchor="start" x="347.73" y="-15.4" font-family="Times-12" font-size="14.00"> &#160;Module</text>
<polygon fill="#80b1d3" stroke="transparent" points="410,-10 410,-30 430,-30 430,-10 410,-10"/>
<text text-anchor="start" x="433.78" y="-15.4" font-family="Times-12" font-size="14.00"> &#160;Bootstrap</text>
<polygon fill="#fdb462" stroke="transparent" points="507,-10 507,-30 527,-30 527,-10 507,-10"/>
<text text-anchor="start" x="530.67" y="-15.4" font-family="Times-12" font-size="14.00"> &#160;Providers</text>
<polygon fill="#fb8072" stroke="transparent" points="603,-10 603,-30 623,-30 623,-10 603,-10"/>
<text text-anchor="start" x="626.73" y="-15.4" font-family="Times-12" font-size="14.00"> &#160;Exports</text>
<g id="clust1" class="cluster">
<title>cluster_PagesModule</title>
<polygon fill="none" stroke="black" stroke-dasharray="1,5" points="8,-70 8,-268 882,-268 882,-70 8,-70"/>
</g>
<g id="clust2" class="cluster">
<title>cluster_PagesModule_declarations</title>
<polygon fill="none" stroke="black" points="28,-78 28,-130 865,-130 865,-78 28,-78"/>
</g>
<g id="clust10" class="cluster">
<title>cluster_PagesModule_exports</title>
<polygon fill="none" stroke="black" points="16,-208 16,-260 874,-260 874,-208 16,-208"/>
</g>
<!-- CatalogoComponent -->
<g id="node1" class="node">
<title>CatalogoComponent</title>
<polygon fill="#ffffb3" stroke="black" points="856.88,-122 725.12,-122 725.12,-86 856.88,-86 856.88,-122"/>
<text text-anchor="middle" x="791" y="-99.8" font-family="Times,serif" font-size="14.00">CatalogoComponent</text>
</g>
<!-- PagesModule -->
<g id="node7" class="node">
<title>PagesModule</title>
<polygon fill="#8dd3c7" stroke="black" points="419.21,-187 416.21,-191 395.21,-191 392.21,-187 326.79,-187 326.79,-151 419.21,-151 419.21,-187"/>
<text text-anchor="middle" x="373" y="-164.8" font-family="Times,serif" font-size="14.00">PagesModule</text>
</g>
<!-- CatalogoComponent&#45;&gt;PagesModule -->
<g id="edge1" class="edge">
<title>CatalogoComponent&#45;&gt;PagesModule</title>
<path fill="none" stroke="black" d="M814.73,-122.22C814.73,-140.83 814.73,-167 814.73,-167 814.73,-167 429.44,-167 429.44,-167"/>
<polygon fill="black" stroke="black" points="429.44,-163.5 419.44,-167 429.44,-170.5 429.44,-163.5"/>
</g>
<!-- CestaComponent -->
<g id="node2" class="node">
<title>CestaComponent</title>
<polygon fill="#ffffb3" stroke="black" points="707.43,-122 594.57,-122 594.57,-86 707.43,-86 707.43,-122"/>
<text text-anchor="middle" x="651" y="-99.8" font-family="Times,serif" font-size="14.00">CestaComponent</text>
</g>
<!-- CestaComponent&#45;&gt;PagesModule -->
<g id="edge2" class="edge">
<title>CestaComponent&#45;&gt;PagesModule</title>
<path fill="none" stroke="black" d="M670.16,-122.03C670.16,-139.06 670.16,-162 670.16,-162 670.16,-162 429.1,-162 429.1,-162"/>
<polygon fill="black" stroke="black" points="429.1,-158.5 419.1,-162 429.1,-165.5 429.1,-158.5"/>
</g>
<!-- ContactaComponent -->
<g id="node3" class="node">
<title>ContactaComponent</title>
<polygon fill="#ffffb3" stroke="black" points="576.59,-122 445.41,-122 445.41,-86 576.59,-86 576.59,-122"/>
<text text-anchor="middle" x="511" y="-99.8" font-family="Times,serif" font-size="14.00">ContactaComponent</text>
</g>
<!-- ContactaComponent&#45;&gt;PagesModule -->
<g id="edge3" class="edge">
<title>ContactaComponent&#45;&gt;PagesModule</title>
<path fill="none" stroke="black" d="M532.85,-122.24C532.85,-137.57 532.85,-157 532.85,-157 532.85,-157 429.23,-157 429.23,-157"/>
<polygon fill="black" stroke="black" points="429.23,-153.5 419.23,-157 429.23,-160.5 429.23,-153.5"/>
</g>
<!-- FooterComponent -->
<g id="node4" class="node">
<title>FooterComponent</title>
<polygon fill="#ffffb3" stroke="black" points="427.88,-122 310.12,-122 310.12,-86 427.88,-86 427.88,-122"/>
<text text-anchor="middle" x="369" y="-99.8" font-family="Times,serif" font-size="14.00">FooterComponent</text>
</g>
<!-- FooterComponent&#45;&gt;PagesModule -->
<g id="edge4" class="edge">
<title>FooterComponent&#45;&gt;PagesModule</title>
<path fill="none" stroke="black" d="M373,-122.11C373,-122.11 373,-140.99 373,-140.99"/>
<polygon fill="black" stroke="black" points="369.5,-140.99 373,-150.99 376.5,-140.99 369.5,-140.99"/>
</g>
<!-- HeaderComponent -->
<g id="node5" class="node">
<title>HeaderComponent</title>
<polygon fill="#ffffb3" stroke="black" points="291.74,-122 170.26,-122 170.26,-86 291.74,-86 291.74,-122"/>
<text text-anchor="middle" x="231" y="-99.8" font-family="Times,serif" font-size="14.00">HeaderComponent</text>
</g>
<!-- HeaderComponent&#45;&gt;PagesModule -->
<g id="edge5" class="edge">
<title>HeaderComponent&#45;&gt;PagesModule</title>
<path fill="none" stroke="black" d="M247.79,-122.01C247.79,-138.05 247.79,-159 247.79,-159 247.79,-159 316.73,-159 316.73,-159"/>
<polygon fill="black" stroke="black" points="316.73,-162.5 326.73,-159 316.73,-155.5 316.73,-162.5"/>
</g>
<!-- HomeComponent -->
<g id="node6" class="node">
<title>HomeComponent</title>
<polygon fill="#ffffb3" stroke="black" points="151.55,-122 36.45,-122 36.45,-86 151.55,-86 151.55,-122"/>
<text text-anchor="middle" x="94" y="-99.8" font-family="Times,serif" font-size="14.00">HomeComponent</text>
</g>
<!-- HomeComponent&#45;&gt;PagesModule -->
<g id="edge6" class="edge">
<title>HomeComponent&#45;&gt;PagesModule</title>
<path fill="none" stroke="black" d="M147.65,-122.27C147.65,-140.56 147.65,-166 147.65,-166 147.65,-166 316.85,-166 316.85,-166"/>
<polygon fill="black" stroke="black" points="316.85,-169.5 326.85,-166 316.85,-162.5 316.85,-169.5"/>
</g>
<!-- CatalogoComponent  -->
<g id="node8" class="node">
<title>CatalogoComponent </title>
<polygon fill="#fb8072" stroke="black" points="865.88,-252 730.12,-252 730.12,-216 865.88,-216 865.88,-252"/>
<text text-anchor="middle" x="798" y="-229.8" font-family="Times,serif" font-size="14.00">CatalogoComponent </text>
</g>
<!-- PagesModule&#45;&gt;CatalogoComponent  -->
<g id="edge7" class="edge">
<title>PagesModule&#45;&gt;CatalogoComponent </title>
<path fill="none" stroke="black" stroke-dasharray="5,2" d="M419.22,-172C524.39,-172 772.52,-172 772.52,-172 772.52,-172 772.52,-205.73 772.52,-205.73"/>
<polygon fill="black" stroke="black" points="769.02,-205.73 772.52,-215.73 776.02,-205.73 769.02,-205.73"/>
</g>
<!-- CestaComponent  -->
<g id="node9" class="node">
<title>CestaComponent </title>
<polygon fill="#fb8072" stroke="black" points="711.93,-252 596.07,-252 596.07,-216 711.93,-216 711.93,-252"/>
<text text-anchor="middle" x="654" y="-229.8" font-family="Times,serif" font-size="14.00">CestaComponent </text>
</g>
<!-- PagesModule&#45;&gt;CestaComponent  -->
<g id="edge8" class="edge">
<title>PagesModule&#45;&gt;CestaComponent </title>
<path fill="none" stroke="black" stroke-dasharray="5,2" d="M419.2,-177C493.94,-177 633.09,-177 633.09,-177 633.09,-177 633.09,-205.96 633.09,-205.96"/>
<polygon fill="black" stroke="black" points="629.59,-205.96 633.09,-215.96 636.59,-205.96 629.59,-205.96"/>
</g>
<!-- ContactaComponent  -->
<g id="node10" class="node">
<title>ContactaComponent </title>
<polygon fill="#fb8072" stroke="black" points="578.09,-252 443.91,-252 443.91,-216 578.09,-216 578.09,-252"/>
<text text-anchor="middle" x="511" y="-229.8" font-family="Times,serif" font-size="14.00">ContactaComponent </text>
</g>
<!-- PagesModule&#45;&gt;ContactaComponent  -->
<g id="edge9" class="edge">
<title>PagesModule&#45;&gt;ContactaComponent </title>
<path fill="none" stroke="black" stroke-dasharray="5,2" d="M419.24,-182C451.63,-182 489.15,-182 489.15,-182 489.15,-182 489.15,-205.81 489.15,-205.81"/>
<polygon fill="black" stroke="black" points="485.65,-205.81 489.15,-215.81 492.65,-205.81 485.65,-205.81"/>
</g>
<!-- FooterComponent  -->
<g id="node11" class="node">
<title>FooterComponent </title>
<polygon fill="#fb8072" stroke="black" points="425.88,-252 304.12,-252 304.12,-216 425.88,-216 425.88,-252"/>
<text text-anchor="middle" x="365" y="-229.8" font-family="Times,serif" font-size="14.00">FooterComponent </text>
</g>
<!-- PagesModule&#45;&gt;FooterComponent  -->
<g id="edge10" class="edge">
<title>PagesModule&#45;&gt;FooterComponent </title>
<path fill="none" stroke="black" stroke-dasharray="5,2" d="M373,-187.11C373,-187.11 373,-205.99 373,-205.99"/>
<polygon fill="black" stroke="black" points="369.5,-205.99 373,-215.99 376.5,-205.99 369.5,-205.99"/>
</g>
<!-- HeaderComponent  -->
<g id="node12" class="node">
<title>HeaderComponent </title>
<polygon fill="#fb8072" stroke="black" points="286.74,-252 161.26,-252 161.26,-216 286.74,-216 286.74,-252"/>
<text text-anchor="middle" x="224" y="-229.8" font-family="Times,serif" font-size="14.00">HeaderComponent </text>
</g>
<!-- PagesModule&#45;&gt;HeaderComponent  -->
<g id="edge11" class="edge">
<title>PagesModule&#45;&gt;HeaderComponent </title>
<path fill="none" stroke="black" stroke-dasharray="5,2" d="M326.87,-180C278.35,-180 208.96,-180 208.96,-180 208.96,-180 208.96,-205.72 208.96,-205.72"/>
<polygon fill="black" stroke="black" points="205.46,-205.72 208.96,-215.72 212.46,-205.72 205.46,-205.72"/>
</g>
<!-- HomeComponent  -->
<g id="node13" class="node">
<title>HomeComponent </title>
<polygon fill="#fb8072" stroke="black" points="143.54,-252 24.46,-252 24.46,-216 143.54,-216 143.54,-252"/>
<text text-anchor="middle" x="84" y="-229.8" font-family="Times,serif" font-size="14.00">HomeComponent </text>
</g>
<!-- PagesModule&#45;&gt;HomeComponent  -->
<g id="edge12" class="edge">
<title>PagesModule&#45;&gt;HomeComponent </title>
<path fill="none" stroke="black" stroke-dasharray="5,2" d="M326.88,-173C246.65,-173 89.88,-173 89.88,-173 89.88,-173 89.88,-205.7 89.88,-205.7"/>
<polygon fill="black" stroke="black" points="86.38,-205.7 89.88,-215.7 93.38,-205.7 86.38,-205.7"/>
</g>
</g>
</svg>
